<?xml version="1.0" encoding="UTF-8" standalone="no"?>
<!-- Created with Inkscape (http://www.inkscape.org/) -->

<svg
   width="500mm"
   height="200mm"
   viewBox="0 0 500 200"
   version="1.1"
   id="svg5"
   inkscape:version="1.2 (dc2aedaf03, 2022-05-15)"
   sodipodi:docname="pathotypr_stck.svg"
   xmlns:inkscape="http://www.inkscape.org/namespaces/inkscape"
   xmlns:sodipodi="http://sodipodi.sourceforge.net/DTD/sodipodi-0.dtd"
   xmlns="http://www.w3.org/2000/svg"
   xmlns:svg="http://www.w3.org/2000/svg">
  <sodipodi:namedview
     id="namedview7"
     pagecolor="#ffffff"
     bordercolor="#000000"
     borderopacity="0.25"
     inkscape:showpageshadow="2"
     inkscape:pageopacity="0.0"
     inkscape:pagecheckerboard="0"
     inkscape:deskcolor="#d1d1d1"
     inkscape:document-units="mm"
     showgrid="false"
     inkscape:zoom="0.52221046"
     inkscape:cx="926.82939"
     inkscape:cy="344.68861"
     inkscape:window-width="1920"
     inkscape:window-height="1009"
     inkscape:window-x="-8"
     inkscape:window-y="-8"
     inkscape:window-maximized="1"
     inkscape:current-layer="layer1" />
  <defs
     id="defs2">
    <pattern
       id="EMFhbasepattern"
       patternUnits="userSpaceOnUse"
       width="6"
       height="6"
       x="0"
       y="0" />
  </defs>
  <g
     inkscape:label="Capa 1"
     inkscape:groupmode="layer"
     id="layer1">
    <path
       style="fill:#fdfdfd;stroke:#000000;stroke-width:0.250183"
       d="m 297.93659,174.32174 c 0.12779,-0.28342 0.11512,-0.38887 -0.2327,0.30842 0.0738,-0.1157 0.1606,-0.18824 0.2327,-0.30842 z"
       id="path10080" />
    <path
       style="fill:#fdfdfd;stroke:#000000;stroke-width:0.250183"
       d="m 206.58133,170.86632 c 0.0481,0.19251 0.12311,0.30841 0.17545,0.49127 l 0.004,-0.006 z"
       id="path10078" />
    <path
       style="fill:#fdfdfd;stroke:#000000;stroke-width:0.250183"
       d="m 215.31868,166.27511 c 3.43681,2.83059 2.55179,2.31061 0.0407,0.048 0.42356,0.36479 0.81661,0.75136 1.27985,1.08593 l -1.28539,-1.09333 c -0.0118,-0.0125 -0.0232,-0.028 -0.0351,-0.0407 z"
       id="path10076" />
    <path
       style="fill:#fdfdfd;stroke:#000000;stroke-width:0.250183"
       d="m 278.64092,155.26246 c 0.0587,0.13721 -0.44038,-0.8737 0.13851,0.33243 -0.0302,-0.0624 -0.12405,-0.3035 -0.13851,-0.33243 z"
       id="path10074" />
    <path
       style="fill:#fdfdfd;stroke:#000000;stroke-width:0.250183"
       d="m 228.36284,154.5736 c -0.0559,0.0931 -0.0966,0.21109 -0.15145,0.30657 -0.0987,0.18696 -0.22455,0.35863 -0.3195,0.54851 z"
       id="path10072" />
    <path
       style="fill:#fdfdfd;stroke:#000000;stroke-width:0.250183"
       d="m 231.63172,150.0304 c 0.0631,0.053 0.12525,0.10584 0.18838,0.16067 a 12.707176,12.707176 0 0 0 -0.19761,0.19761 12.707176,12.707176 0 0 0 -0.10712,-0.0535 z"
       id="path10070" />
    <path
       style="fill:#fdfdfd;stroke:#000000;stroke-width:0.250183"
       d="m 216.72411,148.14109 c -0.0642,0.0214 -0.12079,0.0592 -0.18468,0.0812 -0.0478,0.017 -0.0907,0.014 -0.13851,0.0314 z"
       id="path10068" />
    <path
       style="fill:#fdfdfd;stroke:#000000;stroke-width:0.250183"
       d="m 224.47342,147.04223 c 2.14667,0.0352 4.58153,0.83881 7.09736,2.93646 -0.0794,0.0901 -0.13682,0.18309 -0.21424,0.27332 a 12.707176,12.707176 0 0 0 -5.52201,-2.84041 c -0.99547,-0.16591 -1.96722,-0.12543 -2.94385,-0.14221 0.53249,-0.0758 1.0054,-0.23662 1.58274,-0.22716 z"
       id="path10066" />
    <path
       style="fill:#fdfdfd;stroke:#000000;stroke-width:0.250183"
       d="m 287.65344,144.7854 h 0.002 l -0.0517,1.13211 c 0.0184,-0.2023 -0.0144,-0.4579 0.002,-0.66486 0.006,-0.14967 0.0478,-0.32259 0.048,-0.46725 z"
       id="path10064" />
    <path
       style="fill:#fdfdfd;stroke:#000000;stroke-width:0.250183"
       d="m 272.91021,142.28849 c -0.0591,0.0449 -0.12066,0.0831 -0.0924,0.0572 0.0331,-0.0254 0.0591,-0.0314 0.0924,-0.0572 z"
       id="path10062" />
    <path
       style="fill:#fdfdfd;stroke:#000000;stroke-width:0.250183"
       d="m 220.70219,136.7757 c -0.18358,0.46809 -0.3629,0.92412 -0.49126,1.38143 -0.90786,0.45543 -1.61706,0.94241 -2.33993,1.44976 a 12.707176,12.707176 0 0 0 2.83119,-2.83119 z"
       id="path10060" />
    <path
       style="fill:#fdfdfd;stroke:#000000;stroke-width:0.250183"
       d="m 282.06309,135.97233 c 0.20669,0.1357 0.33717,0.25155 1.12473,0.70734 -0.37472,-0.23596 -0.68202,-0.46594 -1.12842,-0.70549 9.5e-4,-7e-4 0.003,-9.5e-4 0.004,-0.002 z"
       id="path10058" />
    <path
       style="fill:#fdfdfd;stroke:#000000;stroke-width:0.250183"
       d="m 223.81594,135.20035 c 0.13628,0.0682 0.22774,0.0665 0.36198,0.12928 0.10225,0.0456 0.21473,0.14138 0.31581,0.18469 z"
       id="path10056" />
    <path
       style="fill:#fdfdfd;stroke:#000000;stroke-width:0.250183"
       d="m 221.56096,133.79677 c 0.17421,0.11786 0.34125,0.1954 0.51527,0.30288 -0.52204,0.79668 -0.90103,1.58077 -1.22999,2.36579 a 12.707176,12.707176 0 0 0 0.71472,-2.66867 z"
       id="path10054" />
    <path
       style="fill:#fdfdfd;stroke:#000000;stroke-width:0.250183"
       d="m 216.96605,128.88605 c 0.0992,0.17359 0.21412,0.28746 0.31581,0.45248 0.0648,0.10199 0.0756,0.18925 0.14405,0.29179 z"
       id="path10052" />
    <path
       style="fill:#fdfdfd;stroke:#000000;stroke-width:0.250183"
       d="m 233.25139,126.82314 c -6.6e-4,5.8e-4 -0.003,9.5e-4 -0.004,0.002 -0.004,9.5e-4 -0.16624,0.0314 -0.15882,0.0295 z"
       id="path10050" />
    <path
       style="fill:#fdfdfd;stroke:#000000;stroke-width:0.250183"
       d="m 287.24345,126.42422 c -0.0929,0.0425 -0.16929,0.0671 -0.1145,0.037 0.0438,-0.02 0.0705,-0.0164 0.1145,-0.037 z"
       id="path10048" />
    <path
       style="fill:#fdfdfd;stroke:#000000;stroke-width:0.250183"
       d="m 210.42273,122.1839 c 0.0718,0.0448 0.13192,0.0602 0.20316,0.10342 0.0479,0.0286 0.0791,0.0697 0.12743,0.0979 z"
       id="path10046" />
    <path
       style="fill:#fdfdfd;stroke:#000000;stroke-width:0.250183"
       d="m 96.369933,113.43362 0.103423,0.10527 -0.103423,0.10343 -0.103422,-0.10343 z"
       id="path10044" />
    <path
       style="fill:#fdfdfd;stroke:#000000;stroke-width:0.250183"
       d="m 285.44095,106.06847 c -0.0228,0.0868 -0.0462,0.15083 -0.0351,0.096 0.002,-0.007 0.0337,-0.0907 0.0351,-0.096 z"
       id="path10042" />
    <path
       style="fill:#fdfdfd;stroke:#000000;stroke-width:0.250183"
       d="m 303.11325,90.638213 c 0.0283,0.138513 0.0431,0.281334 0.0221,0.214233 -0.0184,-0.08815 -0.002,-0.124127 -0.0221,-0.214233 z"
       id="path10040" />
    <path
       style="fill:#fdfdfd;stroke:#000000;stroke-width:0.250183"
       d="m 223.09014,73.006533 c -0.62423,1.001357 -0.0259,-7.31e-4 -0.0295,0.0074 z"
       id="path10038" />
    <path
       style="fill:#fdfdfd;stroke:#000000;stroke-width:0.250183"
       d="m 223.70882,71.946453 c -0.0226,0.0742 -0.0464,0.121558 -0.0684,0.197611 -0.14133,0.224028 -0.25139,0.361188 -0.40631,0.637156 -0.0143,0.0019 -0.0282,0.0037 -0.0425,0.0056 l 0.4063,-0.699948 c 0.06,-0.08988 0.0486,-0.05464 0.1108,-0.140359 z"
       id="path10036" />
    <path
       style="fill:#fdfdfd;stroke:#000000;stroke-width:0.250183"
       d="m 224.50851,69.920481 a 12.707176,12.707176 0 0 0 0.006,0.0093 c -0.0647,0.139516 -0.12308,0.321645 -0.18838,0.472788 -0.0604,0.161573 -0.15406,0.297823 -0.2087,0.461707 z"
       id="path10034" />
    <path
       style="fill:#fdfdfd;stroke:#000000;stroke-width:0.250183"
       d="m 273.63416,60.610614 c 0.12621,0.07018 0.22593,0.139128 0.1496,0.103423 -0.055,-0.03038 -0.094,-0.07348 -0.1496,-0.103423 z"
       id="path10032" />
    <path
       style="fill:#fdfdfd;stroke:#000000;stroke-width:0.250183"
       d="m 218.46753,58.833965 c 0.47745,0.24168 0.94306,0.496764 1.4516,0.696254 6e-4,0.02105 9.5e-4,0.03183 0.002,0.05356 l -0.85877,-0.356438 c 0.0205,0.01027 -0.50494,-0.357899 -0.59467,-0.393374 z"
       id="path10030" />
    <path
       style="fill:#fdfdfd;stroke:#000000;stroke-width:0.250183"
       d="m 292.68606,54.628734 c -0.14474,0.146051 0.62381,-0.777625 -0.30658,0.293646 0.099,-0.10955 0.20897,-0.179769 0.30658,-0.293646 z"
       id="path10028" />
    <path
       style="fill:#fdfdfd;stroke:#000000;stroke-width:0.250183"
       d="m 207.89627,24.344424 c -0.0294,0.06858 -0.0199,0.129035 -0.048,0.197612 -0.0966,0.256219 -0.24591,0.545629 -0.3269,0.788596 z"
       id="path10026" />
    <path
       style="fill:#fdfdfd;stroke:#000000;stroke-width:0.250183"
       d="m 215.38701,22.427415 c -0.54616,0.212398 -1.05299,0.537893 -1.58458,0.797831 l 0.009,-0.02217 z"
       id="path10024" />
    <path
       style="fill:#fdfdfd;stroke:#000000;stroke-width:0.250183"
       d="m 215.16724,7.3739089 c -0.13288,0.037966 -0.30438,0.1063999 -0.4414,0.1458995 -0.0197,0.00647 -0.0676,0.010231 -0.0868,0.016621 z"
       id="path10022" />
    <path
       style="fill:#fdfdfd;stroke:#000000;stroke-width:0.628808;stroke-dasharray:none"
       d="m 282.2053,3.0486344 c -2.55859,0 -5.42283,0.4175356 -8.72257,2.4027251 -2.61643,1.5242512 -4.14057,3.2614541 -5.245,4.9365755 h -29.68039 c -0.15405,-0.20181 -0.21396,-0.3963713 -0.3823,-0.5983733 a 12.707176,12.707176 0 0 0 -0.0609,-0.07387 c -4.37167,-5.166503 -9.55892,-5.7612038 -12.48457,-5.9467906 -0.52138,-0.047329 -1.08718,-0.087248 -1.75263,-0.083107 h -0.002 c -2.07145,0.01316 -4.54567,0.3207151 -7.31344,1.7046235 a 12.707176,12.707176 0 0 0 -0.34167,0.1772956 c -1.56587,0.8431574 -2.77603,1.8097114 -3.77677,2.7997935 -0.76414,0.3399985 -1.56889,0.7270453 -2.58371,1.4035903 -1.04425,0.696175 -3.10002,1.927454 -5.01415,5.117564 a 12.707176,12.707176 0 0 0 -0.13666,0.234547 c -1.94445,3.402757 -2.09246,6.489026 -2.09246,8.220238 0,0.740946 -0.29519,3.020931 1.05824,6.630118 a 12.707176,12.707176 0 0 0 0.0997,0.256709 c 0.51079,1.277043 0.93059,1.856446 1.35742,2.537543 -0.21406,0.575905 -0.51278,1.059128 -0.67779,1.686155 -1.80009,6.84025 -0.29703,13.750801 7.05305,18.344557 a 12.707176,12.707176 0 0 0 0.19576,0.120044 c 0.26002,0.156019 0.15381,0.05403 0.38414,0.180989 0.0854,0.133871 0.18425,0.256685 0.27333,0.387835 0.16453,0.976537 0.33606,1.647078 0.31027,1.543949 -0.40352,-1.613929 -0.30818,-1.21167 0.0332,0.494951 a 12.707176,12.707176 0 0 0 0.13298,0.589139 c 0.079,0.316255 0.54979,3.153006 3.22087,6.161023 1.85834,2.167379 3.88792,3.538413 5.83967,4.340048 0.33356,0.57663 0.44977,0.736543 0.68886,0.982514 -0.35484,0.154535 -0.68622,0.253539 -1.02129,0.421076 a 12.707176,12.707176 0 0 0 -0.40076,0.21054 c -4.60061,2.509417 -6.64858,6.253643 -7.65142,9.607206 a 12.707176,12.707176 0 0 0 -0.12928,0.136665 c -0.0365,0.04061 -0.0757,0.115611 -0.11265,0.156981 -0.10643,0.04786 -0.22324,0.15375 -0.33059,0.204998 a 12.707176,12.707176 0 0 0 -0.55589,-0.554049 12.707176,12.707176 0 0 0 -0.44878,-0.450626 12.707176,12.707176 0 0 0 -0.002,0 12.707176,12.707176 0 0 0 -10.55279,-5.902467 h -8.29596 V 67.333073 A 12.707176,12.707176 0 0 0 180.37842,54.626887 h -12.60091 a 12.707176,12.707176 0 0 0 -11.67935,8.872168 12.707176,12.707176 0 0 0 -9.32279,-4.672478 h -4.19969 a 12.707176,12.707176 0 0 0 -10.55463,5.904314 12.707176,12.707176 0 0 0 -0.44878,0.448779 12.707176,12.707176 0 0 0 -3.75092,3.750911 12.707176,12.707176 0 0 0 -0.45062,0.450626 12.707176,12.707176 0 0 0 -4.99198,7.158311 12.707176,12.707176 0 0 0 -2.87736,0.770128 12.707176,12.707176 0 0 0 -10.53062,-5.880305 H 83.769016 a 12.707176,12.707176 0 0 0 -10.552783,5.902467 12.707176,12.707176 0 0 0 -0.0019,0 12.707176,12.707176 0 0 0 -0.44878,0.450626 12.707176,12.707176 0 0 0 -1.597508,1.597507 12.707176,12.707176 0 0 0 -1.599354,-1.597507 12.707176,12.707176 0 0 0 -0.448779,-0.450626 12.707176,12.707176 0 0 0 -0.0019,0 12.707176,12.707176 0 0 0 -10.552783,-5.902467 H 41.764728 a 12.707176,12.707176 0 0 0 -2.099845,0.563283 12.707176,12.707176 0 0 0 -2.099845,-0.563283 H 24.962274 A 12.707176,12.707176 0 0 0 12.256087,84.135527 v 63.006433 a 12.707176,12.707176 0 0 0 12.706187,12.70618 h 12.602764 a 12.707176,12.707176 0 0 0 12.706186,-12.70618 v -4.09627 h 8.294111 a 12.707176,12.707176 0 0 0 10.552783,-5.90247 12.707176,12.707176 0 0 0 0.0019,0 12.707176,12.707176 0 0 0 0.448779,-0.45062 12.707176,12.707176 0 0 0 1.599354,-1.59751 12.707176,12.707176 0 0 0 1.597508,1.59751 12.707176,12.707176 0 0 0 0.44878,0.45062 12.707176,12.707176 0 0 0 0.0019,0 12.707176,12.707176 0 0 0 10.552783,5.90247 h 16.800608 a 12.707176,12.707176 0 0 0 2.10169,-0.56328 12.707176,12.707176 0 0 0 2.09984,0.56328 h 12.60092 a 12.707176,12.707176 0 0 0 11.67936,-8.87217 12.707176,12.707176 0 0 0 2.52092,2.51908 12.707176,12.707176 0 0 0 0.44878,0.45062 12.707176,12.707176 0 0 0 0.002,0 12.707176,12.707176 0 0 0 10.55279,5.90247 h 16.8006 a 12.707176,12.707176 0 0 0 4.19969,-1.12657 12.707176,12.707176 0 0 0 4.20154,1.12657 h 12.60091 a 12.707176,12.707176 0 0 0 8.40123,-3.75091 12.707176,12.707176 0 0 0 8.40123,3.75091 h 12.60092 a 12.707176,12.707176 0 0 0 5.42598,-1.45346 c -0.96757,0.8972 -2.04231,2.00115 -3.15438,3.78047 a 12.707176,12.707176 0 0 0 -0.35828,0.60945 c -1.2881,2.34198 -1.93151,4.68859 -2.12017,6.97178 -1.09313,1.27394 -2.0489,2.73271 -2.74623,4.50811 -1.82426,4.39225 -1.24677,7.76412 -1.15981,8.72073 l -0.0517,-1.15058 c 0,1.81386 0.41821,4.01453 1.17274,6.24414 l 0.13481,-0.3269 c -0.0486,0.10694 -0.0736,0.2518 -0.12189,0.36013 0.003,0.009 0.006,0.0184 0.009,0.0277 -0.009,0.0211 -0.025,0.0436 -0.0332,0.0647 l -0.004,-0.0111 c -9.5e-4,0.002 -0.003,0.005 -0.004,0.008 9.4e-4,0.004 0.003,0.007 0.004,0.0111 -0.007,0.0164 -0.0176,0.0353 -0.024,0.0517 -1.10271,2.49965 -2.0919,5.36999 -1.26138,9.9378 a 12.707176,12.707176 0 0 0 0.0425,0.21792 c 0.86901,4.34509 2.95937,6.63173 3.46095,7.30052 a 12.707176,12.707176 0 0 0 0.24379,0.31396 c 0.45935,0.57418 1.8791,2.58824 4.95134,4.34374 a 12.707176,12.707176 0 0 0 0.62053,0.33428 c 2.54848,1.27425 4.74622,1.65431 6.41589,1.84128 0.89486,0.14471 4.40318,1.29148 9.74018,-1.75817 l -2.28452,1.02314 c 3.27376,-1.09128 4.59903,-2.30361 5.37242,-3.13592 a 12.707176,12.707176 0 0 0 0.11635,0.0351 h 37.11019 a 12.707176,12.707176 0 0 0 0.91603,-0.22901 c 0.13606,0.1025 0.23123,0.23493 0.37122,0.33428 3.75128,2.71934 7.03817,2.99344 9.42436,3.01587 2.85294,0.16163 5.896,-0.0952 9.43914,-1.83574 3.3356,-1.5967 6.45119,-4.30951 8.35692,-8.28673 0.96693,-1.99493 1.34972,-4.11539 1.48853,-5.84522 0.2476,-1.82816 0.31832,-4.70087 -1.31494,-8.07433 -0.13151,-0.28476 -0.25607,-0.42903 -0.38968,-0.68148 0.0126,-0.0527 0.005,-0.0899 0.0166,-0.14221 -0.0645,-0.11413 -0.0826,-0.21963 -0.15144,-0.33428 l 0.15513,0.31028 c 0.26719,-1.19153 0.38565,-2.30941 0.39154,-3.2412 0.0915,-0.89238 0.26594,-1.80558 0.26594,-2.70745 a 12.707176,12.707176 0 0 0 -0.0517,-1.15057 c -0.21165,-2.32802 -0.8241,-5.72735 -3.6438,-9.20644 0.002,-0.10845 0.0258,-0.20859 0.0258,-0.31766 0,-6.92263 -3.68424,-12.86146 -9.93595,-15.42841 -0.22692,-0.60195 -0.41574,-1.18423 -0.74611,-1.84498 -0.36854,-0.73708 -0.81393,-1.28228 -1.23369,-1.8967 0.15718,-0.12085 0.40914,-0.22832 0.55775,-0.34721 1.06213,-0.8497 2.21771,-2.00521 3.06758,-3.06758 a 12.707176,12.707176 0 0 0 0.97329,-1.3999 c 1.22969,-2.04948 1.80701,-3.89121 2.09984,-5.54787 a 12.707176,12.707176 0 0 0 0.0572,-0.0166 c 0.76792,-0.28798 1.28816,-0.58381 1.87083,-0.87909 a 12.707176,12.707176 0 0 0 5.63837,9.56472 12.707176,12.707176 0 0 0 0.44878,0.44879 12.707176,12.707176 0 0 0 3.75091,3.75091 12.707176,12.707176 0 0 0 0.45063,0.45062 12.707176,12.707176 0 0 0 10.55278,5.90247 h 12.52335 a 12.707176,12.707176 0 0 0 12.67848,12.60092 h 12.60277 a 12.707176,12.707176 0 0 0 10.55278,-5.90247 12.707176,12.707176 0 0 0 0.45062,-0.45063 12.707176,12.707176 0 0 0 3.74907,-3.74906 12.707176,12.707176 0 0 0 0.45063,-0.45062 12.707176,12.707176 0 0 0 3.75091,-3.75091 12.707176,12.707176 0 0 0 0.44878,-0.44878 12.707176,12.707176 0 0 0 3.75091,-3.75092 12.707176,12.707176 0 0 0 0.45063,-0.45062 12.707176,12.707176 0 0 0 1.49223,-1.49223 v 11.94159 a 12.707176,12.707176 0 0 0 12.70619,12.70618 h 12.60091 a 12.707176,12.707176 0 0 0 12.70619,-12.70618 v -4.09627 h 8.29596 a 12.707176,12.707176 0 0 0 8.40123,-3.75091 12.707176,12.707176 0 0 0 8.40122,3.75091 h 12.60092 a 12.707176,12.707176 0 0 0 12.70619,-12.70618 v -16.69583 h 4.09626 a 12.707176,12.707176 0 0 0 10.55279,-5.90432 12.707176,12.707176 0 0 0 0.45062,-0.44878 12.707176,12.707176 0 0 0 0,-0.002 12.707176,12.707176 0 0 0 3.74907,-3.74906 12.707176,12.707176 0 0 0 0.45063,-0.45063 12.707176,12.707176 0 0 0 5.90247,-10.55278 v -4.201536 a 12.707176,12.707176 0 0 0 -5.90247,-10.552784 12.707176,12.707176 0 0 0 -0.45063,-0.450626 12.707176,12.707176 0 0 0 -10.55278,-5.902468 h -16.80266 a 12.707176,12.707176 0 0 0 -2.09984,0.563283 12.707176,12.707176 0 0 0 -2.09985,-0.563283 h -12.60092 a 12.707176,12.707176 0 0 0 -8.40122,3.750911 12.707176,12.707176 0 0 0 -8.40123,-3.750911 h -16.80061 a 12.707176,12.707176 0 0 0 -2.10168,0.563283 12.707176,12.707176 0 0 0 -2.09985,-0.563283 h -12.6004 a 12.707176,12.707176 0 0 0 -4.19968,1.126567 12.707176,12.707176 0 0 0 -4.20154,-1.126567 h -12.60093 a 12.707176,12.707176 0 0 0 -8.39937,3.750911 12.707176,12.707176 0 0 0 -8.40123,-3.750911 h -12.60276 a 12.707176,12.707176 0 0 0 -8.29596,3.645642 V 71.700977 A 12.707176,12.707176 0 0 0 318.33113,58.99479 h -4.19969 a 12.707176,12.707176 0 0 0 -10.55278,5.902466 12.707176,12.707176 0 0 0 -0.45063,0.450627 12.707176,12.707176 0 0 0 -3.75091,3.75091 12.707176,12.707176 0 0 0 -0.44878,0.44878 12.707176,12.707176 0 0 0 -4.99383,7.158311 12.707176,12.707176 0 0 0 -1.00652,0.269636 c -0.66288,-1.601585 -1.56342,-3.101159 -2.63727,-4.44347 -1.8224,-2.277985 -3.91673,-3.8322 -6.07422,-4.892251 0.40679,-0.623004 0.85818,-1.231124 1.15796,-1.88746 0.89371,-0.465279 1.77798,-1.004382 2.62803,-1.678769 2.80991,-2.209569 5.21775,-5.315026 6.08531,-9.900852 0.10951,-0.572549 0.0524,-0.650025 0.0979,-1.10071 2.82333,-1.81466 5.16971,-4.381645 6.75754,-7.874881 1.49866,-3.296966 2.58095,-7.40033 0.40261,-12.781907 1.72168,-2.987218 2.80842,-6.793173 2.17372,-10.918455 a 12.707176,12.707176 0 0 0 -0.7609,-2.786865 c -0.38078,-0.952071 -0.54763,-1.286897 -0.50048,-1.169043 a 12.707176,12.707176 0 0 0 -0.43217,-0.964046 c -0.88529,-1.770646 -2.3644,-3.874754 -4.30495,-5.579271 -1.06035,-0.942372 -2.13186,-1.6802308 -3.18578,-2.2494387 -0.17853,-0.2173171 -0.27531,-0.4694676 -0.46541,-0.6833269 A 12.707176,12.707176 0 0 0 291.42099,5.93538 c 0.81836,0.5455721 0.65013,0.3786422 -0.66855,-0.5004907 a 12.707176,12.707176 0 0 0 -1.36481,-0.7941366 c -3.51004,-1.7550154 -6.66529,-1.591967 -7.18232,-1.591967 z"
       id="path9526" />
    <path
       style="fill:#000000;fill-opacity:1;fill-rule:nonzero;stroke:none;stroke-width:0.250183"
       d="m 250.7647,134.09216 c -2.58523,-1.25093 -5.92102,-0.66715 -8.08927,1.25092 -0.25019,0.25018 -0.50037,0.50036 -0.58377,0.83394 -0.16679,0.66716 0.25019,1.41771 0.33358,2.08487 0.0834,0.66716 -0.25018,1.25092 -0.66716,1.75129 -0.41697,0.50036 -0.91734,0.83394 -1.5011,1.25091 -0.0834,0.0834 -0.25018,0.16679 -0.33358,0.0834 -0.16679,0 -0.25018,-0.0834 -0.33358,-0.16679 -0.50036,-0.50037 -1.08412,-1.00073 -1.66789,-1.5011 -0.25018,-0.25018 -0.50036,-0.50037 -0.83394,-0.58376 -0.33359,-0.0834 -0.58377,0 -0.91735,0.0834 -0.58376,0.0834 -1.16752,0.33358 -1.75128,0.50037 -0.41697,0.16679 -0.91734,0.41697 -1.25092,0.75055 -0.66715,0.66715 -0.91734,1.66789 -0.91734,2.58523 0,1.00074 0.0834,1.91808 -0.0834,2.91881 -0.33358,1.25092 -1.16753,2.41844 -2.33506,3.00221 -0.25018,0.25019 -0.25018,0.25019 -0.25018,0.25019 -1.16752,-0.16679 -2.50183,-0.25019 -3.58597,0.16678 -0.58376,0.25019 -1.08413,0.58377 -1.5845,1.00074 -0.58376,0.50036 -1.16752,1.08413 -1.58449,1.75128 -0.91734,1.66789 -0.25018,3.91955 1.25092,5.00368 0.16679,0.16679 0.41697,0.25018 0.50036,0.41697 0.0834,0.16679 0.0834,0.33358 0.0834,0.50037 0,0.58376 -0.0834,1.16753 -0.33358,1.6679 -0.0834,0.0834 -0.0834,0.16678 -0.16679,0.25018 -0.16679,0.0834 -0.33358,0.0834 -0.41697,0 -1.00073,-0.16679 -2.08486,-0.0834 -3.00221,0.25018 -1.00073,0.33358 -1.83468,1.08413 -2.16826,2.00147 -0.41697,0.91734 -0.33357,1.91808 -0.25018,2.83542 0,1.00073 0.16679,1.91807 0.58376,2.75202 0.0834,0.33357 0.33358,0.58376 0.58376,0.83394 0.25019,0.16679 0.50037,0.16679 0.83395,0.25018 0.91734,0.2502 1.91808,0.50038 2.91881,0.66717 -0.91734,1.33431 -1.91808,2.66862 -2.83542,4.00293 -0.33358,0.25019 -0.33358,0.25019 -0.33358,0.25019 -0.75055,0.66716 -1.25091,1.50111 -1.58449,2.41845 -0.41697,0.91733 -0.66716,2.00146 -0.50037,2.9188 0.16679,0.83396 0.66716,1.50111 1.16752,2.16827 0.33358,0.41697 0.75055,0.91734 1.33432,1.25091 0.66715,0.33358 1.41771,0.50037 2.16826,0.58376 0.66716,0.0834 1.41771,0.16679 2.00147,-0.16678 0.50036,-0.16679 0.91734,-0.58377 1.25091,-0.91734 2.16827,-2.33505 3.58598,-5.33726 4.00295,-8.42286 0,-0.33358 0.0834,-0.75055 0.25018,-0.91734 0.16679,-0.16679 0.33358,-0.25018 0.58376,-0.33358 1.00075,-0.41697 2.00148,-1.25092 2.41845,-2.33504 0.41697,-1.08414 0.33358,-2.41845 -0.41697,-3.33579 -0.50037,-0.83395 -1.41772,-1.25092 -2.25166,-1.75128 0.16679,-0.50037 0.16679,-0.50037 0.16679,-0.50037 0.66715,-0.66717 1.5845,-1.16753 2.33505,-1.83469 0.75055,-0.58376 1.5011,-1.4177 1.66789,-2.41844 0.16679,-0.91734 -0.25018,-1.83469 -0.83394,-2.58524 -0.58376,-0.75055 -1.33431,-1.25091 -2.16826,-1.83467 1.25092,-0.41698 2.58523,-0.66716 3.83615,-1.25092 1.16752,-0.58376 2.25166,-1.5845 2.58523,-2.83542 0.16679,-0.91734 0,-1.91807 0.0834,-2.83541 0.0834,-1.00075 0.66715,-2.00148 1.66789,-2.00148 1.08412,0.58376 1.91807,1.75128 3.169,2.08487 1.5011,0.41697 3.0022,-0.33359 4.08633,-1.41771 1.5011,-1.41771 2.50184,-3.66936 1.75129,-5.67084 0.75055,0.16679 1.58449,-0.50036 1.58449,-1.33431 0.75055,0.83395 1.83469,1.16753 2.91882,1.16753 1.00073,0 2.08486,-0.25019 3.08559,-0.58377 0.66717,-0.25018 1.33432,-0.50036 1.83469,-1.00073 0.41697,-0.41697 0.58376,-1.08413 0.75055,-1.6679 0.25018,-1.58449 0.25018,-3.16899 -0.25018,-4.67009 -0.16679,-0.50037 -0.16679,-0.50037 -0.16679,-0.50037 1.25091,-0.0834 2.50183,-0.16679 3.75276,-0.25019 0.91734,-0.0834 2.00146,-0.16679 2.75201,-0.75055 0.66717,-0.50036 1.08412,-1.33431 1.33431,-2.16825 0.16679,-0.83395 0.16679,-1.6679 0.25018,-2.50185 0,-0.0834 0,-0.25018 0,-0.33357 0.0834,-0.0834 0.1668,-0.0834 0.25019,-0.16679 0.75055,-0.25019 1.58451,-0.16679 2.25165,-0.41697 1.25092,-0.33358 2.08488,-1.5845 2.58525,-2.83542 0.50036,1.00074 1.58449,1.41771 2.66861,1.41771 1.00074,0 2.00147,-0.50037 2.83543,-1.16752 0.41697,-0.33358 0.75056,-0.66716 1.08413,-1.08414 0.50037,-0.83394 0.58375,-1.91807 0.50037,-2.91881 -0.0834,-1.5011 -0.50037,-2.91881 -1.08412,-4.25312 1.41769,-0.16679 2.8354,-0.33358 4.08632,-0.91734 1.33431,-0.58376 2.50184,-1.5845 2.83541,-3.00221 0.0834,-0.16679 0.0834,-0.16679 0.0834,-0.16679 0.58375,0.50037 1.41769,0.50037 2.16824,0.33358 0.66717,-0.25019 1.33434,-0.66716 1.91809,-1.08413 0.66716,-0.50037 1.3343,-1.08413 1.6679,-1.91808 0.16677,-0.41697 0.25018,-0.91733 0.25018,-1.41771 0,-1.25092 -0.41698,-2.58523 -1.16753,-3.58597 -0.41698,-0.66715 -1.08412,-1.16752 -1.83467,-1.08412 0.16677,-0.25019 0.16677,-0.25019 0.16677,-0.25019 0.50037,-1.33431 0.50037,-2.83542 0.1668,-4.16973 -0.0834,-0.25018 -0.0834,-0.50037 0,-0.583761 0.0834,-0.0834 0.1668,-0.0834 0.25018,-0.16679 0.83394,-0.16679 1.83467,-0.416971 2.16827,-1.167522 0.0834,-0.250184 0.16677,-0.583763 0.16677,-0.833948 0.0834,-0.833945 0.1668,-1.66789 0,-2.418442 -0.25018,-1.334315 -1.08412,-2.501838 -2.33504,-3.168996 -1.16753,-0.583761 -2.58523,-0.667157 -3.83614,-0.166789 -0.1668,-2.251655 -1.75129,-4.419913 -3.91956,-5.170465 1.00073,-1.250919 0.75055,-3.168996 -0.25018,-4.419915 -1.00074,-1.250919 -2.58522,-1.918077 -4.16974,-2.084864 -1.08412,-0.166791 -2.41843,0 -3.0022,0.917339 -0.0834,0.16679 -0.16678,0.33358 -0.25019,0.33358 -0.16677,0 -0.25018,-0.0834 -0.33357,-0.16679 -1.00074,-0.750552 -2.16827,-1.167525 -3.41919,-1.167525 0.1668,-0.250184 0.1668,-0.250184 0.1668,-0.250184 0.25018,-1.084129 0.58375,-2.251654 0.33357,-3.419178 -0.25018,-1.167525 -1.00073,-2.251654 -2.08485,-2.835418 -1.00075,-0.583761 -2.33505,-0.750552 -3.50258,-0.500367 -0.66716,0.166789 -1.33431,0.583763 -1.66789,1.250918 -0.0834,0.0834 -0.0834,0.0834 -0.0834,0.0834 -0.50037,-0.166789 -1.08414,0.250185 -1.58451,0 -0.50036,-0.250183 -0.50036,-0.917341 -0.50036,-1.417709 0.0834,-1.417708 0.33357,-2.918811 -0.33358,-4.253125 -0.58376,-1.084129 -1.66789,-1.751286 -2.66862,-2.418444 -0.33358,-0.166788 -0.66716,-0.416972 -1.08414,-0.500368 -0.33358,0 -0.75055,0.0834 -1.08413,0.166791 -0.66716,0.166789 -1.33431,0.500367 -1.91807,0.833944 -0.25019,0.250185 -0.25019,0.250185 -0.25019,0.250185 -0.33357,-0.250185 -0.41697,-0.750552 -0.58376,-1.084129 -0.16679,-0.583763 -0.66715,-1.000736 -1.16753,-1.41771 -0.16679,-0.166788 -0.41697,-0.333578 -0.66715,-0.416971 -0.41698,-0.16679 -0.91734,-0.16679 -1.25092,0 -0.0834,-0.0834 -0.0834,-0.0834 -0.0834,-0.0834 0.50037,-0.833946 0.58377,-1.918075 0.33358,-2.835417 -0.25018,-1.000735 -0.83394,-1.83468 -1.5011,-2.501837 -0.33358,-0.333578 -0.66715,-0.583762 -1.00073,-0.833946 -1.6679,-1.000735 -3.91955,-0.750552 -5.25386,0.667155 0,-0.250183 0,-0.250183 0,-0.250183 0.0834,-0.416972 0.0834,-0.917339 -0.0834,-1.25092 -0.16678,-0.333577 -0.41697,-0.500367 -0.66716,-0.667155 -0.25018,-0.250184 -0.58376,-0.500367 -1.00073,-0.583763 0,-0.250185 0,-0.250185 0,-0.250185 0.33357,-0.166787 0.41697,-0.667155 0.33357,-1.000735 0,-1.084129 -0.25018,-2.168258 -0.66715,-3.0856 -0.16679,-0.500367 -0.41697,-0.917341 -0.75055,-1.250918 -0.66716,-0.667158 -1.66789,-0.750552 -2.58523,-0.833946 -1.08414,-0.16679 -2.16827,-0.250183 -3.169,0.08339 -0.0834,0.250183 -0.0834,0.250183 -0.0834,0.250183 -0.41698,-0.16679 -0.75055,-0.416974 -1.00074,-0.750551 -0.41697,-0.416974 -0.83394,-0.833946 -1.25092,-1.25092 -0.0834,-0.250189 -0.0834,-0.250189 -0.0834,-0.250189 0.58376,-0.583761 0.83395,-1.334313 0.83395,-2.16826 0.0834,-0.833946 -0.16679,-1.584497 -0.41698,-2.335049 -0.16678,-0.416974 -0.41697,-0.833946 -0.75056,-1.167524 -0.25018,-0.250185 -0.66715,-0.416973 -1.00073,-0.500368 -0.41697,-0.16679 -0.83394,-0.333579 -1.25092,-0.416973 -0.25018,-0.08339 -0.50036,-0.166789 -0.83394,-0.166789 -0.33358,0 -0.66716,0.166789 -1.00073,0.333578 0,0.250184 0,0.250184 0,0.250184 0.25018,-1.000735 -0.0834,-2.001471 -0.50037,-2.835417 -0.25019,-0.583762 -0.50038,-1.167524 -1.00074,-1.417709 0.16679,-0.416972 0.16679,-0.416972 0.16679,-0.416972 0.91734,-0.08339 1.83468,-0.250184 2.66863,-0.667157 0.83394,-0.416974 1.58449,-1.167525 1.83468,-2.001471 0.16678,-0.583762 0.25018,-1.08413 0.25018,-1.584497 0,-0.333578 0,-0.667157 -0.0834,-1.000736 -0.0834,-0.583762 -0.41697,-1.08413 -0.83394,-1.584497 -1.00073,-1.167524 -2.41844,-1.918076 -4.00294,-2.084865 -0.0834,0 -0.0834,0 -0.0834,0 1.33432,-0.750551 2.75203,-1.250919 3.75276,-2.251654 0.33358,-0.250185 0.50037,-0.583764 0.66716,-0.917341 0.16679,-0.416974 0.16679,-0.833947 0.16679,-1.25092 0,-1.250919 -0.0834,-2.585233 -0.91734,-3.585969 -0.91734,-1.084129 -2.41844,-1.417708 -3.83616,-1.501103 -0.83394,-0.08339 -1.66789,0 -2.33504,0.333579 -1.08413,0.583762 -1.5845,1.751286 -2.00148,2.835418 -0.0834,-0.08339 -0.0834,-0.08339 -0.0834,-0.08339 -0.50037,-0.166789 -1.00074,-0.08339 -1.5011,0.08339 -0.58376,0.166789 -1.25092,0.416972 -1.75129,0.750551 -0.50036,0.333579 -0.91733,0.667156 -1.16752,1.08413 -0.33358,0.583762 -0.41697,1.250919 -0.41697,1.918076 0,0.750551 0,1.501103 0.25018,2.168259 0.16679,0.416974 0.50037,0.750552 0.75055,1.08413 0.50037,0.500368 1.00074,0.917341 1.5011,1.334314 0.33358,0.250184 0.66716,0.500368 1.08413,0.583762 0.41697,0.0834 0.83395,0.166789 1.16752,-0.08339 0,0.416973 0,0.416973 0,0.416973 -0.25018,0 -0.41697,0.250184 -0.50036,0.500368 -0.25019,0.583762 -0.25019,1.167524 -0.16679,1.751286 0,0.166789 0,0.333579 0,0.500368 0.0834,0.166789 0.16679,0.333579 0.25018,0.500368 0.33358,0.583762 0.58376,1.250918 0.75056,1.918076 -0.41698,0.250183 -0.41698,0.250183 -0.41698,0.250183 -1.5011,0.583762 -2.83541,1.834682 -3.25238,3.419179 -0.41698,1.584498 0.16678,3.502574 1.5011,4.33652 0.41697,0.250183 0.91733,0.416973 1.33431,0.583763 0.75055,0.250184 1.5845,0.500368 2.41845,0.333577 0.16678,0.166791 0.16678,0.166791 0.16678,0.166791 -0.0834,0.583761 -0.0834,1.250919 0,1.918074 0.33358,1.334315 1.33432,2.418444 2.58523,2.835418 0.16679,0.08339 0.33358,0.166788 0.33358,0.333578 -0.0834,0.500368 -0.0834,0.500368 -0.0834,0.500368 -0.16679,0.750551 -0.33358,1.584497 -0.16679,2.335048 0,0.33358 0.0834,0.583763 0.16679,0.917341 0.0834,0.333578 0.0834,0.667158 0.16679,1.084129 0.0834,0.333581 0.16679,0.667158 0.41698,0.917342 0.66715,0.833946 1.75128,1.167525 2.75201,1.250919 1.00074,0 2.00148,-0.08339 3.08561,0.08339 0.41697,0 0.91734,0.16679 1.4177,0.0834 0.0834,0.08339 0.0834,0.08339 0.0834,0.08339 -0.33358,0.917342 -0.33358,1.918077 -0.33358,2.918812 0,0.333577 0,0.750551 0.16679,1.167523 0.0834,0.416974 0.41697,0.833948 0.66715,1.167525 0.16679,0.250184 0.33358,0.500368 0.50037,0.750552 0.33358,0.333578 0.58376,0.750551 1.00073,1.000735 0.33359,0.250184 0.83396,0.416974 1.33433,0.416974 0.58376,0.08339 1.16752,0.166788 1.75128,0.166788 0.41697,0 0.83394,0 1.25092,-0.08339 0.66715,-0.08339 1.16752,-0.500368 1.50111,-1.08413 0,0.166788 0,0.166788 0,0.166788 0,0.500368 0.0834,1.000736 0.33357,1.501103 0.25019,0.416974 0.66716,0.750551 1.16753,0.833947 0.50036,0.08339 1.16752,-0.0834 1.66788,0.250185 0,0.416971 0,0.416971 0,0.416971 -0.25018,1.167525 -0.16678,2.33505 0.16679,3.502574 0.25019,0.667157 0.58376,1.334315 1.16753,1.751286 0.41698,0.250185 1.00074,0.250185 1.50111,0.333581 1.75128,0.08339 3.50256,0 4.92028,-0.917342 -0.33358,0.16679 -0.33358,0.16679 -0.33358,0.16679 -0.0834,1.167523 0.58376,2.335048 1.58449,3.002206 0.33358,0.250184 0.83395,0.416971 1.25092,0.250184 0.0834,0.166787 0.0834,0.166787 0.0834,0.166787 -0.33358,0.917342 -0.50037,1.918077 -0.33358,3.002206 0.16679,1.250919 0.75055,2.501839 1.33431,3.669364 0.16679,0.166789 0.25018,0.416974 0.50038,0.583761 0.16678,0.0834 0.41697,0.166791 0.58376,0.166791 1.5011,0.250183 3.08559,-0.250185 4.33651,-1.08413 0.25019,-0.0834 0.41698,-0.250184 0.58377,-0.250184 0.58376,-0.0834 1.00073,0.583762 1.4177,1.000736 0.75055,0.917339 2.25165,1.167522 3.3358,0.583761 0.25018,0 0.25018,0 0.25018,0 -0.66717,1.834681 -0.58377,3.919548 0.33357,5.754228 0.1668,0.333578 0.33357,0.667158 0.66717,0.833945 0.25018,0.16679 0.50036,0.16679 0.75055,0.16679 0.58375,0 1.1675,0 1.83467,0.08339 1.25092,0 2.75202,0 3.75276,-0.833946 0.0834,-0.08339 0.25018,-0.250183 0.41698,-0.16679 0.0834,0 0.16677,0.0834 0.25018,0.16679 0.16677,0.250184 0.41696,0.416974 0.58375,0.667157 0,0.333578 0,0.333578 0,0.333578 -0.41698,0.750552 -0.16679,1.751288 0.1668,2.585232 0.33357,1.000736 0.66714,2.084867 1.50111,2.835419 0.58375,0.500368 1.3343,0.833945 2.08485,1.000735 0.58376,0 1.08412,0 1.6679,0.08339 0.50037,0.16679 1.08413,0.416974 1.25093,0.917342 -0.1668,0.500367 -0.1668,0.500367 -0.1668,0.500367 -2.16827,1.084125 -3.33578,3.91954 -2.50184,6.25459 0.25018,0.75056 0.66716,1.41771 1.41771,1.6679 0.50037,0.16679 1.16752,0.0834 1.50111,0.50036 0.50037,0.58377 0.0834,1.50111 -0.58378,1.75129 -0.75056,0.33358 -1.50111,0.25018 -2.25166,0.33358 -1.75128,0.16679 -3.33578,1.50111 -3.83614,3.169 -1.00074,-0.33358 -2.16827,-0.75055 -3.169,-0.33358 -1.08412,0.33358 -1.75129,1.33432 -2.25166,2.33505 -0.50037,1.00073 -0.91732,2.25166 -0.41696,3.25239 0.0834,0.33358 0.33357,0.58377 0.50037,0.91734 0.41696,1.00074 -0.0834,2.16826 -0.58378,3.08561 -0.75055,-0.33358 -1.58448,-0.75055 -2.41842,-0.91735 -0.91735,-0.16679 -1.8347,-0.0834 -2.58525,0.50038 -1.16752,0.83394 -1.25091,2.58522 -1.75128,3.91953 -0.83394,1.83469 -2.66863,3.169 -4.6701,3.33579 -1.16752,0.0834 -2.41845,-0.25018 -3.58597,0.0834 -1.5011,0.41697 -2.50183,1.83467 -2.83541,3.41918 -0.41697,1.5011 -0.25018,3.08559 -0.0834,4.5867 z"
       id="path399" />
    <path
       style="fill:#000000;fill-opacity:1;fill-rule:nonzero;stroke:none;stroke-width:0.250183"
       d="m 234.66954,23.093931 c 12.4258,0 24.8516,0 37.36079,0 0.0834,0.16679 0.0834,0.16679 0.0834,0.16679 0,1.501103 0,2.918811 -0.33357,4.253125 -0.0834,0.333579 -0.1668,0.583762 -0.25019,0.917341 -0.16679,0 -0.16679,0 -0.16679,0 -12.09222,0 -24.18444,0 -36.36005,0 -0.25018,0 -0.25018,0 -0.25018,0 -0.25019,-1.667892 -0.33358,-3.419179 -0.25019,-5.087071 z"
       id="path401" />
    <path
       style="fill:#000000;fill-opacity:1;fill-rule:nonzero;stroke:none;stroke-width:0.250183"
       d="m 236.7544,39.272486 c 0.25019,0.333579 0.58377,0.667157 0.91735,1.000735 2.33505,2.00147 4.6701,3.752757 6.00441,4.503308 0.16679,0.0834 0.16679,0.0834 0.16679,0.0834 6.00441,0 11.92543,0 17.92984,0 0.16678,0.08339 0.16678,0.08339 0.16678,0.08339 2.16827,-1.667893 4.33653,-3.252389 6.50478,-4.836887 0.25019,-0.250184 0.50037,-0.416973 0.58378,-0.750552 -0.1668,-0.333578 -0.1668,-0.333578 -0.1668,-0.333578 -10.59111,0 -21.26562,0 -31.94014,0 z"
       id="path403" />
    <path
       style="fill:#a20d00;fill-opacity:1;fill-rule:nonzero;stroke:none;stroke-width:0.250183"
       d="m 283.372,43.025243 c 0.25018,0.333579 0.83393,0.416973 1.25091,0.333579 2.00147,-0.250183 3.91956,-1.584499 4.7535,-3.419179 0.41698,-0.917341 0.58375,-2.084866 0.16679,-3.002206 -0.33359,-0.667157 -0.91734,-1.084129 -1.41771,-1.584497 -0.41698,-0.333579 -0.91736,-0.750552 -1.41772,-1.167525 -0.33357,-0.250184 -0.75055,-0.583762 -1.16751,-0.416974 0.16677,-0.250183 0.16677,-0.250183 0.16677,-0.250183 0.66717,-0.583762 0.75055,-1.501103 0.75055,-2.418444 0,-0.750551 -0.0834,-1.584497 -0.50036,-2.251654 -0.33357,0 -0.33357,0 -0.33357,0 0.66716,0.250184 1.41771,-0.08339 2.00146,-0.333579 1.00075,-0.500367 1.83468,-1.167524 2.50185,-2.00147 0.66716,-0.917341 1.00073,-2.001471 0.83393,-3.085601 -0.16677,-0.416973 -0.33357,-0.750551 -0.50036,-1.167524 -0.33357,-0.667158 -0.75055,-1.25092 -1.33431,-1.751287 -0.91734,-0.833946 -2.16827,-1.084131 -3.41919,-1.167525 0,-0.08339 0,-0.08339 0,-0.08339 -0.16677,-1.000735 -0.66714,-2.001471 -1.3343,-2.752023 -0.25018,-0.166788 -0.41698,-0.333577 -0.66716,-0.500367 -0.50037,-0.250184 -1.00074,-0.250184 -1.50111,-0.250184 -0.75055,0 -1.58449,0.166789 -2.25165,0.583763 -0.91733,0.500367 -1.5011,1.417708 -1.91806,2.335048 -0.1668,0.333579 -0.33359,0.667158 -0.50038,1.000736 -0.33359,1.167525 -0.0834,2.501838 0.58377,3.502573 0.16679,0.16679 0.33357,0.416974 0.58375,0.500368 0.1668,0.16679 0.50037,0.250184 0.75055,0.333579 0.33359,0.166789 0.75055,0.166789 1.16753,0.250183 -0.0834,0 -0.0834,0 -0.0834,0 -0.25018,0.250184 -0.33359,0.583763 -0.33359,0.917342 0,0.333578 0.1668,0.583762 0.33359,0.833946 -0.25018,0.08339 -0.25018,0.08339 -0.25018,0.08339 -0.58378,0.250184 -1.08414,0.500367 -1.58451,0.91734 -0.16677,0.250185 -0.41696,0.500368 -0.58375,0.750552 -0.58376,0.91734 -0.91735,1.918076 -0.91735,3.002206 -0.0834,1.000735 0.25018,2.084866 1.00073,2.835417 0.75055,0.833946 1.91808,1.167524 2.75202,1.918076 0,0.08339 0,0.08339 0,0.08339 -0.41696,0.333579 -0.75055,0.750552 -1.08412,1.167525 -0.0834,0.250184 -0.25018,0.500368 -0.33357,0.750551 0,0.166789 0,0.333579 0,0.500368 0,0.416973 0,0.750552 0.0834,1.08413 -0.1668,0.166789 -0.1668,0.166789 -0.1668,0.166789 -0.58375,0 -1.08412,0 -1.66788,0.08339 -1.25092,0.333579 -2.16827,1.417708 -2.58525,2.585233 -0.33357,1.250919 -0.16677,2.585232 0.25019,3.752757 0,0.08339 0,0.08339 0,0.08339 -0.91733,0.250183 -1.66788,0.917341 -2.08486,1.751286 -0.25018,-0.08339 -0.25018,-0.08339 -0.25018,-0.08339 -1.41772,-1.000735 -3.41919,-1.084129 -4.92029,-0.250184 -1.50111,0.917342 -2.41843,2.668629 -2.25166,4.419915 0,0.416972 0.1668,0.833946 0.25018,1.250919 0.0834,0.333578 0.1668,0.667156 0.25019,1.000735 -0.0834,0.166789 -0.0834,0.166789 -0.0834,0.166789 -0.41698,0.0834 -0.75055,0.333579 -1.08412,0.667157 -0.25018,0.250184 -0.41698,0.667157 -0.58378,1.000735 -0.16677,0.16679 -0.16677,0.16679 -0.16677,0.16679 -0.75056,-0.750551 -1.91808,-1.084131 -3.00222,-0.917341 -1.00073,0.250184 -1.91807,0.833945 -2.66862,1.501103 -0.50037,0.416973 -1.08413,0.833945 -1.25092,1.501103 0.0834,0.333577 0.0834,0.333577 0.0834,0.333577 3.08559,0.750552 6.00441,2.668628 7.42211,5.587441 0.33357,-0.583764 0.66717,-1.167525 1.00074,-1.751287 0,-0.0834 0.0834,-0.16679 0.16679,-0.16679 0,0 0.0834,0 0.16678,0 0.50037,0.16679 1.00074,0.416974 1.58452,0.583762 1.08412,0.333579 2.33503,0.16679 3.41915,-0.250184 0.41698,-0.166788 0.91736,-0.333578 1.25093,-0.583762 0.91735,-0.667157 1.41771,-1.834681 1.41771,-2.918812 0,-1.167523 -0.41698,-2.251654 -1.00073,-3.168993 0.0834,-0.250185 0.0834,-0.250185 0.0834,-0.250185 0.50036,-0.0834 1.00073,-0.500367 1.16753,-1.084131 0,-0.166787 0,-0.166787 0,-0.166787 0.83393,0.416971 1.75128,0.833945 2.75201,0.833945 1.08413,0.08339 2.16828,-0.16679 3.00221,-0.833945 0.75055,-0.583764 1.33431,-1.41771 1.5011,-2.335051 0.0834,-0.416972 0.0834,-0.833945 0.0834,-1.250919 0,-1.084129 -0.0834,-2.168258 -0.66714,-3.0856 0,-0.08339 0,-0.08339 0,-0.08339 0.75055,-0.0834 1.5011,-0.416973 2.00147,-1.000736 0.58376,-0.583763 0.91733,-1.334314 1.00074,-2.084866 0,-0.416971 -0.0834,-0.833945 -0.33359,-1.084129 z"
       id="path405" />
    <path
       style="fill:#a20d00;fill-opacity:1;fill-rule:nonzero;stroke:none;stroke-width:0.250183"
       d="m 282.53805,168.95111 c 1.16752,0.16679 2.33505,0.0834 3.41917,-0.33359 0.41698,-0.16679 0.83396,-0.41697 1.08414,-0.83394 0.16677,-0.25019 0.25018,-0.58376 0.25018,-1.00074 0.16678,-0.83394 0.25019,-1.75128 0.25019,-2.58522 -0.0834,-0.91735 -0.3336,-1.83469 -0.91735,-2.50185 -0.50037,-0.50036 -1.08412,-0.91734 -1.6679,-1.25091 -0.91732,-0.41698 -2.00146,-0.83395 -2.9188,-0.41698 -0.25018,0 -0.25018,0 -0.25018,0 0.0834,-0.91734 -0.50037,-1.83468 -1.41771,-2.16826 0.0834,-0.0834 0.0834,-0.0834 0.0834,-0.0834 1.91808,-0.41697 3.41919,-2.25165 3.41919,-4.25312 0,-2.00147 -1.58449,-3.91954 -3.58596,-4.08633 -1.25092,-0.16679 -2.58525,0.33358 -3.58599,1.08413 -0.0834,-0.16679 -0.0834,-0.16679 -0.0834,-0.16679 0.25018,-0.33358 0.33357,-0.75055 0.33357,-1.16752 0,-0.41698 -0.16678,-0.83396 -0.33357,-1.25093 -0.1668,-0.33358 -0.41698,-0.75055 -0.75055,-0.91734 -0.33357,-0.25018 -0.75055,-0.25018 -1.16753,-0.25018 -0.33357,0.0834 -0.75055,0.16679 -1.08412,0.25018 0.0834,-0.0834 0.0834,-0.0834 0.0834,-0.0834 0.41698,-0.0834 0.75055,-0.41698 1.00074,-0.83395 0.16679,-0.41697 0.25018,-0.83394 0.25018,-1.33431 0.0834,-0.91734 0,-2.00148 -0.41696,-2.83542 -0.58377,-1.16752 -1.6679,-1.83468 -2.75202,-2.41844 -0.58378,-0.25018 -1.25092,-0.50037 -1.8347,-0.58376 -1.91806,-0.25018 -3.83614,1.08413 -4.25312,2.9188 -0.16678,-0.16678 -0.16678,-0.16678 -0.16678,-0.16678 -0.33359,-0.58377 -0.75055,-1.08413 -1.16753,-1.5845 -0.0834,-0.0834 -0.25018,-0.25018 -0.33357,-0.16679 -0.0834,0.16679 -0.0834,0.16679 -0.0834,0.16679 -0.0834,3.33579 -2.33505,6.58817 -5.50404,7.6723 -0.16679,0 -0.16679,0 -0.16679,0 0.66715,1.08414 1.91807,1.75129 3.16899,1.75129 0.58376,0 1.08413,-0.0834 1.5845,-0.25018 0.66716,-0.0834 1.25092,-0.25018 1.83468,-0.58376 0.50037,-0.25018 1.00073,-0.75056 1.16753,-1.41772 0.0834,0.16679 0.0834,0.16679 0.0834,0.16679 0.41698,0.41697 0.91734,0.83395 1.25091,1.33432 0,0.16679 0,0.16679 0,0.16679 0,0.91734 -0.0834,1.91807 0.0834,2.91881 0.1668,1.00073 0.58378,1.91808 1.33433,2.58524 0.66715,0.58376 1.58449,0.91733 2.50184,1.00073 0.91732,0.0834 1.83467,0 2.75203,-0.0834 0.0834,0.16679 0.0834,0.16679 0.0834,0.16679 0,0.25019 -0.0834,0.58376 -0.0834,0.91734 -0.0834,0.0834 -0.0834,0.0834 -0.0834,0.0834 -0.25019,0.41697 -0.58377,0.91734 -0.83395,1.33431 -0.1668,0.25018 -0.33357,0.58377 -0.50037,0.83395 -0.0834,0.50037 -0.0834,0.91734 -0.0834,1.41771 0,0.91734 0.16677,1.83468 0.50036,2.75201 0.41697,0.83396 1.16752,1.58451 2.08487,1.6679 0,0 0,0 0,0 -1.00074,0.33358 -1.91809,1.08413 -2.33505,2.00147 -0.41698,1.00073 -0.41698,2.16827 0,3.0856 0.25018,0.58377 0.66715,1.00074 1.00074,1.41771 0.75055,0.83394 1.66788,1.58449 2.83541,1.91807 -0.0834,0.0834 -0.0834,0.0834 -0.0834,0.0834 -0.33359,0.0834 -0.58378,0.50037 -0.66716,0.83395 -0.0834,0.41697 0.0834,0.83395 0.16679,1.16752 0.16678,0.58376 0.41696,1.08413 0.75055,1.5845 0.50037,0.58376 1.33431,0.91734 1.7513,1.66789 -0.0834,0.0834 -0.0834,0.0834 -0.0834,0.0834 -0.16679,1.25093 0.41698,2.58524 1.5011,3.33579 0.66716,0.50037 1.58451,0.66715 2.50183,0.66715 1.16754,0.0834 2.41846,-0.0834 3.41919,-0.58376 1.08412,-0.50036 2.00147,-1.33431 2.50183,-2.41844 0.25019,-0.50037 0.33358,-1.00074 0.33358,-1.5845 0.0834,-0.50037 0.0834,-1.00073 -0.16678,-1.41771 -0.1668,-0.41697 -0.50037,-0.75055 -0.83396,-1.08412 -0.50037,-0.50037 -1.00073,-1.00074 -1.5011,-1.50111 -0.0834,-0.0834 -0.0834,-0.0834 -0.0834,-0.0834 0,-0.58376 -0.0834,-1.16752 -0.25018,-1.66789 -0.0834,-0.33357 -0.1668,-0.58376 -0.33357,-0.75055 -0.1668,-0.25018 -0.33359,-0.41697 -0.50037,-0.50036 -0.75055,-0.50037 -1.58451,-0.58376 -2.41845,-0.41698 -0.1668,0 -0.1668,0 -0.1668,0 0.1668,-0.33357 0.1668,-0.75055 0.0834,-1.16752 z"
       id="path407" />
    <path
       style="fill:#000000;fill-opacity:1;fill-rule:nonzero;stroke:none;stroke-width:0.250183"
       d="m 271.27978,179.20865 c -12.34241,0 -24.76821,0 -37.194,0 0.0834,0 0.0834,0 0.0834,0 1.5011,-1.41772 2.66863,-3.2524 3.33579,-5.17047 0,0 0,0 0,0 10.59112,0 21.18223,0 31.77335,0 -0.0834,0 -0.0834,0 -0.0834,0 0.41698,1.5011 1.5011,2.75202 2.08488,4.16972 0.0834,0.25019 0.16677,0.50037 0.16677,0.75056 z"
       id="path409" />
    <path
       style="fill:#000000;fill-opacity:1;fill-rule:nonzero;stroke:none;stroke-width:0.250183"
       d="m 241.17432,158.1932 c 8.17267,0 16.34535,0 24.51801,0 0,0 0,0 0,0 0.66716,0.83395 1.16753,1.75129 1.58451,2.75202 0.0834,0.16679 0.16678,0.33358 0.25018,0.58376 0,0.16679 0,0.41698 0,0.66716 0,0.41697 0,0.83394 0,1.25092 -0.0834,0.0834 -0.0834,0.25018 -0.16679,0.25018 0,0 0,0 0,0 -9.50698,0 -19.01397,0 -28.52096,0 0.0834,0 0.0834,0 0.0834,0 -0.25019,-0.41697 -0.25019,-0.83395 -0.16679,-1.33431 0.0834,-0.41697 0.25018,-0.83395 0.50037,-1.25092 0.50036,-1.00073 1.16752,-2.00147 1.91807,-2.83542 z"
       id="path411" />
    <path
       style="fill:#a20d00;fill-opacity:1;fill-rule:nonzero;stroke:none;stroke-width:0.250183"
       d="m 240.0068,80.886396 c 0.33357,1.501103 0.25018,3.0856 -0.50037,4.503309 -0.66716,1.334314 -2.00147,2.335049 -3.58597,2.418443 -1.08413,0.0834 -2.33505,-0.416972 -2.75202,-1.417707 -0.33358,-0.16679 -0.33358,-0.16679 -0.33358,-0.16679 -0.0834,0.583761 -0.50036,1.084129 -0.91734,1.501103 -0.16679,0.250183 -0.41698,0.500368 -0.75056,0.583761 -0.25018,0.0834 -0.58376,-0.08339 -0.75055,-0.333578 0,0.16679 0,0.16679 0,0.16679 0.16679,1.000735 0.16679,2.084865 0,3.085601 -0.25018,1.000735 -0.75055,2.00147 -1.5011,2.668628 -0.25018,0.250183 -0.50036,0.416971 -0.75055,0.500367 -0.58376,0.250184 -1.25091,0.250184 -1.91808,0.166788 -0.66715,-0.08339 -1.25091,-0.250184 -1.75128,-0.583762 0.0834,0.16679 0.0834,0.16679 0.0834,0.16679 0.0834,0.416972 0.16679,0.750552 0.16679,1.084129 0,0.250184 -0.0834,0.416974 -0.16679,0.583762 -0.16679,0.16679 -0.33357,0.250184 -0.50036,0.16679 0.0834,0.08339 0.0834,0.08339 0.0834,0.08339 1.5011,0.750552 3.0022,1.83468 3.41918,3.50257 0.33358,1.08413 0,2.33506 -0.75056,3.33579 -0.66715,0.91734 -1.83467,1.4177 -3.0022,1.58449 -0.16679,0.33358 -0.16679,0.33358 -0.16679,0.33358 0.25019,0.0834 0.41698,0.25019 0.50037,0.50037 0.16679,0.33358 0.25018,0.66716 0.25018,1.08413 0,0.0834 0,0.0834 0,0.0834 1.08413,-0.25018 2.25165,-0.33358 3.33579,-0.16679 0.75055,0.0834 1.5011,0.33358 2.00147,0.91734 0.50037,0.58377 0.58376,1.33432 0.66715,2.08487 0,0.0834 0,0.0834 0,0.0834 0.66716,0.0834 1.41771,0.16679 2.08487,0.33358 0.50037,0.0834 1.00074,0.16679 1.41771,0.41697 0.41697,0.25019 0.75055,0.58377 1.08413,0.91734 0.83394,0.83395 1.75128,1.75129 2.00147,2.91882 0.0834,0.25018 0.0834,0.50037 0.0834,0.75055 -0.0834,0.25018 -0.16679,0.50037 -0.25018,0.66716 -0.25019,0.41697 -0.50037,0.83394 -0.75055,1.25091 0,0 0,0 0,0 0.83394,0.41697 1.4177,1.25092 1.5011,2.16827 0,0.0834 0,0.0834 0,0.0834 0.66716,-0.58377 1.5845,-0.66716 2.41845,-0.66716 0.66715,0.0834 1.4177,0.0834 2.00146,0.33358 0.91735,0.41698 1.50111,1.16753 1.7513,2.08487 0.25018,0.91733 0.16678,1.91807 -0.25019,2.75201 -0.0834,0.0834 -0.0834,0.0834 -0.0834,0.0834 1.08413,0.0834 2.08486,0.75056 2.9188,1.50111 0.25019,0.16679 0.50037,0.50036 0.58376,0.83394 -0.0834,0.25018 -0.0834,0.25018 -0.0834,0.25018 -1.66789,0.75055 -3.25238,1.5845 -4.83689,2.50184 -0.66715,0.41698 -1.33431,0.83395 -1.91807,1.41771 0,-0.25018 0,-0.25018 0,-0.25018 -0.16679,-0.41697 -0.33358,-0.83394 -0.41697,-1.25093 -0.0834,-0.41697 0,-0.83394 0.25018,-1.16752 0,-0.0834 0,-0.0834 0,-0.0834 -0.75055,0 -1.5011,-0.25019 -2.25165,-0.50037 -0.33358,-0.16679 -0.58377,-0.25018 -0.91735,-0.50037 -0.25018,-0.16679 -0.58376,-0.50036 -0.75055,-0.75055 -0.41697,-0.41697 -0.66715,-0.91734 -1.00073,-1.4177 0,-0.0834 0,-0.0834 0,-0.0834 -0.25018,0.33358 -0.75055,0.41698 -1.25092,0.50037 -0.75055,0 -1.5011,0 -2.25166,-0.16679 -0.66715,-0.0834 -1.33431,-0.16679 -2.00146,-0.50037 -0.58377,-0.25018 -1.16753,-0.66716 -1.5011,-1.25092 -0.33358,-0.50037 -0.50037,-1.08413 -0.58377,-1.66789 -0.0834,-0.66716 -0.16678,-1.33431 0,-1.91807 0.0834,-0.66716 0.50037,-1.25093 1.08413,-1.50111 0.0834,0 0.0834,0 0.0834,0 -0.16679,-0.25019 -0.41698,-0.50037 -0.50037,-0.75055 0,-0.33358 0.0834,-0.58376 0.16679,-0.83395 0.0834,-0.25018 0.0834,-0.25018 0.0834,-0.25018 -1.16753,-0.0834 -2.41845,-0.0834 -3.58597,-0.16679 -0.50036,0 -0.91734,-0.0834 -1.4177,-0.16679 -0.25019,-0.0834 -0.58376,-0.25018 -0.75055,-0.41697 -0.25019,-0.25018 -0.41698,-0.58376 -0.58377,-0.91734 -0.25019,-0.75055 -0.33358,-1.5845 -0.25019,-2.41845 0,-0.16679 0,-0.16679 0,-0.16679 -0.75055,0.25019 -1.5011,0.41697 -2.33504,0.50037 -0.75055,0 -1.5845,-0.0834 -2.25166,-0.50037 -1.00074,-0.58376 -1.5845,-1.66789 -1.66789,-2.83542 -0.0834,-1.16753 0.25018,-2.33505 0.83394,-3.33578 0.33358,-0.75056 0.83395,-1.41771 1.6679,-1.75129 0.16679,-0.33358 0.16679,-0.33358 0.16679,-0.33358 -0.0834,-0.83394 -0.0834,-1.58449 -0.16679,-2.33505 -0.0834,-0.83395 -0.16679,-1.751289 0.33358,-2.41844 0.0834,-0.0834 0.0834,-0.0834 0.0834,-0.0834 -0.83394,-0.583761 -1.5845,-1.167522 -2.00147,-2.00147 -0.25019,-0.583762 -0.33358,-1.25092 -0.33358,-1.834681 0,-0.833946 0.0834,-1.584497 0.25018,-2.335049 0.16679,-0.667157 0.58376,-1.417709 1.16753,-1.834682 1.00074,-0.833946 2.41844,-0.750552 3.66936,-0.667156 0.16679,-0.0834 0.16679,-0.0834 0.16679,-0.0834 0.0834,-1.167523 0.75055,-2.251654 1.50111,-3.0856 0.66716,-0.667157 1.41771,-1.250918 2.33504,-1.250918 0.16679,-0.08339 0.16679,-0.08339 0.16679,-0.08339 -0.0834,-1.000735 -0.0834,-2.16826 0.16679,-3.168996 0.25019,-1.084129 0.83395,-2.084864 1.75129,-2.585232 0.50037,-0.250183 0.91734,-0.416974 1.41771,-0.583763 1.66789,-0.333578 3.50257,-0.08339 4.75349,1.000735 0.16679,0 0.16679,0 0.16679,0 0.25019,-0.250183 0.41698,-0.416972 0.58376,-0.667155 0.0834,-0.166791 0.25019,-0.33358 0.41698,-0.500368 0.41697,-0.416974 1.08412,-0.416974 1.66789,-0.500367 0.25018,-0.0834 0.25018,-0.0834 0.25018,-0.0834 -0.50037,-0.416972 -0.75055,-1.084129 -0.75055,-1.667892 0,-0.500367 0.16679,-1.000735 0.41697,-1.501103 0.16679,-0.500367 0.41697,-0.91734 0.75055,-1.334314 0.58376,-0.750552 1.41772,-1.167523 1.91808,-1.918075 0,0.08339 0,0.08339 0,0.08339 0.25019,0.750552 0.75055,1.334313 1.25092,1.834681 1.66789,1.584499 3.75276,2.752022 5.92102,3.25239 -0.0834,-0.166788 -0.0834,-0.166788 -0.0834,-0.166788 0.83395,-0.16679 1.75128,0.166788 2.33506,0.750552 0.58376,0.667155 0.83394,1.584496 0.66715,2.418441 -0.16679,0.250184 -0.16679,0.250184 -0.16679,0.250184 -0.0834,0.33358 -0.16679,0.667158 -0.50036,0.917342 -0.41699,0.250183 -0.83396,0.08339 -1.25093,-0.08339 -0.50037,-0.166789 -0.91734,-0.416973 -1.41771,-0.583763 -0.33357,-0.166788 -0.75055,-0.416972 -0.83394,-0.833945 -0.58376,0 -0.58376,0 -0.58376,0 -0.33358,0.416973 -0.66716,0.833945 -1.08413,1.084129 -0.75056,0.333579 -1.6679,0.0834 -2.50184,0.16679 z"
       id="path413" />
    <path
       style="fill:#000000;fill-opacity:1;fill-rule:nonzero;stroke:none;stroke-width:0.250183"
       d="m 242.75882,111.65901 c 1.08413,0.66715 2.16826,1.33431 3.0856,2.25166 1.00073,0.83394 1.75129,1.83467 2.25166,3.0022 0,0.0834 0,0.0834 0,0.0834 3.50256,0 7.08853,0 10.59111,0 0.16679,0.0834 0.16679,0.0834 0.16679,0.0834 0.66716,-1.16752 1.41771,-2.33504 2.50183,-3.16898 0.58376,-0.41698 1.16754,-0.75056 1.7513,-1.08414 0.50036,-0.41697 1.08412,-0.83395 1.3343,-1.5011 0.0834,0.16679 0.0834,0.16679 0.0834,0.16679 -7.33873,0 -14.67746,0 -21.93279,0 z"
       id="path415" />
    <path
       style="fill:#000000;fill-opacity:1;fill-rule:nonzero;stroke:none;stroke-width:0.250183"
       d="m 233.66881,98.399261 c 12.92616,0 25.76893,0 38.69509,0 0,0 0,0 0,0 0.33358,0.0834 0.66717,0.333579 0.83395,0.66716 0.16679,0.333581 0.25018,0.750549 0.25018,1.084129 0.0834,1.00074 -0.0834,1.91808 -0.33357,2.83542 -0.0834,0.33357 -0.1668,0.66715 -0.50037,0.83394 0,0.0834 0,0.0834 0,0.0834 -12.84277,0 -25.60215,0 -38.36152,0 -0.0834,0.0834 -0.0834,0.0834 -0.0834,0.0834 -0.16678,-0.16679 -0.33357,-0.41697 -0.50036,-0.66716 -0.41697,-0.75055 -0.91734,-1.5011 -1.00074,-2.25165 -0.0834,-0.50037 0,-1.08413 0.0834,-1.584498 0.0834,-0.25018 0.0834,-0.50037 0.25018,-0.750551 0.0834,-0.25018 0.33358,-0.41697 0.66716,-0.50037 z"
       id="path417" />
    <path
       style="fill:#000000;fill-opacity:1;fill-rule:nonzero;stroke:none;stroke-width:0.250183"
       d="m 260.85545,87.724754 c 0.66715,0.667157 1.33431,1.334312 1.91808,2.084864 1.08413,1.250919 2.08486,2.668628 3.58596,3.502574 -0.0834,0.16679 -0.0834,0.16679 -0.0834,0.16679 -9.3402,0 -18.68039,0 -27.93719,0 0,-0.16679 0,-0.16679 0,-0.16679 1.58449,-0.166788 3.16899,-0.416972 4.50331,-1.25092 1.33431,-0.917339 2.25165,-2.418442 2.33504,-4.086335 0,-0.250183 0,-0.250183 0,-0.250183 5.08707,0 10.25754,0 15.34461,0 z"
       id="path419" />
    <text
       xml:space="preserve"
       style="font-style:normal;font-variant:normal;font-weight:400;font-size:113.412px;line-height:125%;font-family:'Jersey 15';text-align:start;letter-spacing:0px;word-spacing:0px;text-anchor:start;fill:#000000;fill-opacity:1;stroke:none;stroke-width:0.250183"
       x="20.762377"
       y="130.33942"
       id="text425"><tspan
         sodipodi:role="line"
         x="20.762377"
         y="130.33942"
         id="tspan423"
         style="stroke-width:0.250183"><tspan
           dx="0"
           dy="0"
           style="font-style:normal;font-variant:normal;font-weight:400;font-size:113.412px;font-family:'Jersey 15';fill:#000000;stroke-width:0.250183"
           id="tspan421">path</tspan></tspan></text>
    <text
       xml:space="preserve"
       style="font-style:normal;font-variant:normal;font-weight:400;font-size:113.412px;line-height:125%;font-family:'Jersey 15';text-align:start;letter-spacing:0px;word-spacing:0px;text-anchor:start;fill:#000000;fill-opacity:1;stroke:none;stroke-width:0.250183"
       x="293.12915"
       y="130.5062"
       id="text431"><tspan
         sodipodi:role="line"
         x="293.12915"
         y="130.5062"
         id="tspan429"
         style="stroke-width:0.250183"><tspan
           dx="0"
           dy="0"
           style="font-style:normal;font-variant:normal;font-weight:400;font-size:113.412px;font-family:'Jersey 15';fill:#a71500;stroke-width:0.250183"
           id="tspan427">typr</tspan></tspan></text>
  </g>
</svg>
